<svg width="366" height="200" viewBox="0 0 366 200" fill="none" xmlns="http://www.w3.org/2000/svg">
<path fill-rule="evenodd" clip-rule="evenodd" d="M153 68C153 51.44 166.44 38 183 38C199.56 38 213 51.44 213 68C213 84.56 199.56 98 183 98C166.44 98 153 84.56 153 68ZM195 68L177 54.5V81.5L195 68Z" fill="#E3E2E6"/>
<path d="M74.112 152.32C73.088 152.32 72.16 152.181 71.328 151.904C70.496 151.627 69.76 151.275 69.12 150.848C68.48 150.4 67.936 149.92 67.488 149.408C67.0613 148.875 66.7093 148.363 66.432 147.872L69.024 145.216C69.3653 145.728 69.7173 146.197 70.08 146.624C70.4427 147.029 70.8053 147.371 71.168 147.648C71.552 147.904 71.968 148.107 72.416 148.256C72.8853 148.405 73.376 148.48 73.888 148.48C74.7627 148.48 75.52 148.288 76.16 147.904C76.8213 147.499 77.3227 146.955 77.664 146.272C78.0267 145.589 78.208 144.832 78.208 144V133.44H73.504V129.6H86.08V133.44H82.304V144.416C82.304 145.504 82.112 146.528 81.728 147.488C81.344 148.427 80.7893 149.269 80.064 150.016C79.36 150.741 78.496 151.307 77.472 151.712C76.4693 152.117 75.3493 152.32 74.112 152.32ZM91.971 152V129.6H108.419V133.376H96.067V148.224H108.547V152H91.971ZM94.019 142.4V138.688H106.787V142.4H94.019ZM121.06 152V133.44H113.764V129.6H132.708V133.44H125.22V152H121.06ZM158.912 152.32C157.44 152.32 156.086 152.16 154.848 151.84C153.632 151.499 152.534 151.008 151.552 150.368C150.592 149.728 149.707 148.949 148.896 148.032L151.456 144.832C152.694 146.261 153.92 147.264 155.136 147.84C156.352 148.416 157.686 148.704 159.136 148.704C159.968 148.704 160.747 148.597 161.472 148.384C162.198 148.171 162.784 147.851 163.232 147.424C163.68 146.976 163.904 146.443 163.904 145.824C163.904 145.419 163.798 145.067 163.584 144.768C163.371 144.448 163.072 144.181 162.688 143.968C162.326 143.733 161.888 143.531 161.376 143.36C160.886 143.189 160.363 143.051 159.808 142.944C159.254 142.816 158.678 142.709 158.08 142.624C156.8 142.411 155.659 142.123 154.656 141.76C153.654 141.397 152.811 140.939 152.128 140.384C151.446 139.808 150.923 139.147 150.56 138.4C150.219 137.653 150.048 136.789 150.048 135.808C150.048 134.827 150.272 133.931 150.72 133.12C151.19 132.309 151.83 131.616 152.64 131.04C153.472 130.464 154.422 130.016 155.488 129.696C156.576 129.376 157.739 129.216 158.976 129.216C160.363 129.216 161.6 129.365 162.688 129.664C163.798 129.963 164.768 130.4 165.6 130.976C166.432 131.552 167.136 132.235 167.712 133.024L165.088 135.84C164.576 135.179 164 134.635 163.36 134.208C162.72 133.76 162.016 133.429 161.248 133.216C160.502 132.981 159.723 132.864 158.912 132.864C158.016 132.864 157.227 132.971 156.544 133.184C155.883 133.397 155.35 133.707 154.944 134.112C154.56 134.517 154.368 135.008 154.368 135.584C154.368 136.032 154.486 136.427 154.72 136.768C154.976 137.109 155.328 137.408 155.776 137.664C156.246 137.92 156.8 138.133 157.44 138.304C158.102 138.475 158.827 138.624 159.616 138.752C160.832 138.965 161.963 139.232 163.008 139.552C164.054 139.872 164.96 140.277 165.728 140.768C166.518 141.259 167.126 141.867 167.552 142.592C167.979 143.296 168.192 144.149 168.192 145.152C168.192 146.624 167.798 147.904 167.008 148.992C166.24 150.059 165.163 150.88 163.776 151.456C162.39 152.032 160.768 152.32 158.912 152.32ZM179.935 152V133.44H172.639V129.6H191.583V133.44H184.095V152H179.935ZM197.596 152V129.6H208.668C210.055 129.6 211.313 129.909 212.444 130.528C213.575 131.147 214.46 131.989 215.1 133.056C215.761 134.123 216.092 135.328 216.092 136.672C216.092 137.995 215.751 139.2 215.068 140.288C214.385 141.376 213.468 142.24 212.316 142.88C211.164 143.52 209.884 143.84 208.476 143.84H201.66V152H197.596ZM212.188 152L205.724 141.888L210.076 141.088L217.18 152.032L212.188 152ZM201.66 140.224H208.348C209.009 140.224 209.596 140.075 210.108 139.776C210.641 139.456 211.057 139.04 211.356 138.528C211.676 137.995 211.836 137.408 211.836 136.768C211.836 136.107 211.665 135.52 211.324 135.008C210.983 134.496 210.513 134.091 209.916 133.792C209.319 133.493 208.636 133.344 207.868 133.344H201.66V140.224ZM223.94 152V129.6H240.388V133.376H228.036V148.224H240.516V152H223.94ZM225.988 142.4V138.688H238.756V142.4H225.988ZM245.189 152L254.821 129.6H258.949L268.517 152H264.133L258.373 138.496C258.245 138.155 258.085 137.739 257.893 137.248C257.722 136.757 257.53 136.245 257.317 135.712C257.125 135.157 256.933 134.635 256.741 134.144C256.57 133.632 256.431 133.205 256.325 132.864L257.253 132.832C257.125 133.28 256.965 133.76 256.773 134.272C256.602 134.763 256.421 135.264 256.229 135.776C256.037 136.267 255.845 136.757 255.653 137.248C255.461 137.717 255.29 138.165 255.141 138.592L249.381 152H245.189ZM249.509 147.008L251.013 143.392H262.437L263.621 147.008H249.509ZM274.002 152V129.6H277.938L286.898 142.624L284.754 142.592L293.81 129.6H297.618V152H293.49V143.456C293.49 141.6 293.533 139.904 293.618 138.368C293.725 136.811 293.896 135.253 294.13 133.696L294.61 135.136L286.802 145.92H284.69L277.042 135.168L277.49 133.696C277.725 135.211 277.885 136.736 277.97 138.272C278.077 139.787 278.13 141.515 278.13 143.456V152H274.002Z" fill="#E3E2E6"/>
</svg>
